<svg xmlns="http://www.w3.org/2000/svg" viewBox="0 0 50 50"><title>icons</title><g id="Ebene_12" data-name="Ebene 12"><g id="MyDay"><g id="Desktop-HD--myday-long-desktop---deprecated"><g id="notification"><path id="Shape" d="M26.44,38l-3.54-1.6a2.48,2.48,0,0,0-3,2.14c0,2,.9,3.79,2.4,4.49a4.48,4.48,0,0,0,4.85-1.11c1.12-1,1-3,0-3.52S26.23,37.65,26.44,38Z"/><path id="Shape-2" data-name="Shape" d="M37.34,38.05,37.08,37a19.9,19.9,0,0,1,1.47-12.73l.5-1.07A12.07,12.07,0,0,0,34.72,7.77a11.76,11.76,0,0,0-16.84,5l-.71,1.53a19.9,19.9,0,0,1-8.8,9.31l-1,.48a1.4,1.4,0,0,0-.88,1.08,3.59,3.59,0,0,0,2,3.72l24.44,11.4a3.25,3.25,0,0,0,4-.94A1.8,1.8,0,0,0,37.34,38.05Z"/></g></g></g></g></svg>