<svg xmlns="http://www.w3.org/2000/svg" viewBox="0 0 50 50"><title>icons</title><g id="flag"><g id="MyDay"><g id="Desktop-HD--myday-long-desktop"><g id="Group-15"><g id="element"><g id="map"><g id="Group-4"><g id="Path-3"><path d="M16.53,40.64V13.84S18.45,11.68,23.2,12c2,.15,4.55,1.38,6.66,1.79,2.93.58,4.48,1.15,6.06.62,0,2.28-3.68,3.91-3.68,5.92a9.41,9.41,0,0,0,1.63,4.35,25.34,25.34,0,0,1-5.52-.54c-1.77-.41-4.47-1.4-5.82-1.4a7.94,7.94,0,0,0-5.31,1.94"/><path d="M16.53,42.39a1.74,1.74,0,0,1-1.74-1.74V13.17l.44-.5c.26-.29,2.65-2.79,8.11-2.37a18.59,18.59,0,0,1,4.2,1,23.44,23.44,0,0,0,2.67.78l1.73.36c1.79.39,2.69.57,3.45.31L37.66,12v2.42c0,1.89-1.34,3.26-2.42,4.37-.46.47-1.22,1.25-1.26,1.56a7.56,7.56,0,0,0,1.32,3.35l1.85,2.66-3.24.08a27,27,0,0,1-6-.59c-.63-.15-1.36-.36-2.12-.58a17.76,17.76,0,0,0-3.3-.77A6.21,6.21,0,0,0,18.44,26l-.17.14V40.64A1.74,1.74,0,0,1,16.53,42.39Zm6-21.35a17.55,17.55,0,0,1,4.27.91c.69.2,1.37.4,1.94.53a18.44,18.44,0,0,0,2.22.36,7.51,7.51,0,0,1-.47-2.47c0-1.68,1.19-2.91,2.25-4l.14-.15c-.54-.09-1.1-.22-1.71-.35l-1.66-.35a26.37,26.37,0,0,1-3.09-.89,16.42,16.42,0,0,0-3.37-.88,7.86,7.86,0,0,0-4.79.89V22A10,10,0,0,1,22.54,21Z"/></g></g></g></g></g></g></g></g></svg>