<svg xmlns="http://www.w3.org/2000/svg" viewBox="0 0 50 50"><title>icons</title><g id="rocket"><polyline id="Fill-1" points="21.89 19 16.38 19.01 9.49 26.83 18.63 26.81"/><polyline id="Fill-2" points="31.24 27.31 31.9 32.59 25.01 40.41 23.94 31.82"/><polyline id="Fill-7" points="18.8 27.22 14.63 29.94 21.4 35.92 23.5 31.37"/><path d="M18.45,26.85,24,31.72c10.15-4.3,17.78-12.54,18-26C25.29,8.8,20.39,19.6,18.45,26.85Zm12.08-8.07a3.55,3.55,0,1,1,5-.31A3.55,3.55,0,0,1,30.53,18.78Z"/><path d="M8.68,39.32a.59.59,0,0,1-.41-.13.51.51,0,0,1-.05-.75l5.91-6.32a.6.6,0,0,1,.8-.05.51.51,0,0,1,.05.75L9.07,39.14A.59.59,0,0,1,8.68,39.32Z"/><path d="M9.88,42.29a.56.56,0,0,1-.39-.12.48.48,0,0,1-.06-.71l5.54-6a.57.57,0,0,1,.76-.06.48.48,0,0,1,.06.71l-5.54,6A.56.56,0,0,1,9.88,42.29Z"/><path d="M12.92,43.06a.59.59,0,0,1-.41-.13.51.51,0,0,1-.05-.75l5.91-6.32a.6.6,0,0,1,.8-.05.51.51,0,0,1,.05.75l-5.91,6.32A.59.59,0,0,1,12.92,43.06Z"/></g></svg>