<svg xmlns="http://www.w3.org/2000/svg" viewBox="0 0 50 50"><title>icons</title><g id="rocket"><polyline id="Fill-1" points="21.89 19 16.38 19.01 9.49 26.83 18.63 26.81"/><polyline id="Fill-2" points="31.24 27.31 31.9 32.59 25.01 40.41 23.94 31.82"/><polyline id="Fill-7" points="18.8 27.22 14.63 29.94 21.4 35.92 23.5 31.37"/><path d="M18.45,26.85,24,31.72c10.15-4.3,17.78-12.54,18-26C25.29,8.8,20.39,19.6,18.45,26.85Zm12.08-8.07a3.55,3.55,0,1,1,5-.31A3.55,3.55,0,0,1,30.53,18.78Z"/><g id="Stroke-11"><path d="M9.93,37.37a.41.41,0,0,1-.29-.7l4.57-4.6a.41.41,0,1,1,.59.58l-4.57,4.6A.41.41,0,0,1,9.93,37.37Z"/></g><g id="Stroke-13"><path d="M14.44,40.82a.41.41,0,0,1-.29-.7l4.57-4.6a.41.41,0,0,1,.59.58l-4.57,4.6A.41.41,0,0,1,14.44,40.82Z"/></g><g id="Stroke-15"><path d="M9.08,42.39a.41.41,0,0,1-.3-.7L15.25,35a.41.41,0,0,1,.59.57L9.38,42.26A.41.41,0,0,1,9.08,42.39Z"/></g></g></svg>