<svg xmlns="http://www.w3.org/2000/svg" viewBox="0 0 50 50"><title>icons</title><g id="Ebene_9" data-name="Ebene 9"><path d="M26.52,32.14c-.17-7.26-4.92-14.37-12-18a5,5,0,0,0-2.53-.72c-2.56.16-3.12,3.27-2.67,5.52,1.68,8.37,7.64,16,15.88,20.43a2.7,2.7,0,0,0,1.74.44A2.42,2.42,0,0,0,28.06,39a41.26,41.26,0,0,0,12-23.77c.33-2.5-.21-5.8-3-6.37-2.42-.5-4.42,1.6-5.6,3.52a42.48,42.48,0,0,0-6.42,21.45"/><path d="M30.11,32.14A25.09,25.09,0,0,0,20.75,14c-4-3.22-10.76-6.8-14.18-.86-3.16,5.48,1.05,13.61,4.2,18.13S20.12,42.83,26,43.3c6,.49,11.35-9.56,13.59-14.22,2.58-5.35,6.3-14.23,3.08-20s-10-4.07-13.43.41c-5.19,6.8-7.37,16-7.72,24.41-.19,4.62,7,4.61,7.18,0a40.74,40.74,0,0,1,2.45-12.61c.78-2.1,1.91-5.34,3.48-7,2.88-3.08,2-.09,1.79,1.63a32.59,32.59,0,0,1-3.74,11,39.34,39.34,0,0,1-3.86,6q-1,1.27-2.14,2.46.83,1.54-.39.55c-3.09-.47-6.87-5.11-8.68-7.44a24.82,24.82,0,0,1-4.71-9.8c-.52-2.3-.57-1.43,1.08-.69a14.6,14.6,0,0,1,4.37,3.58,17.17,17.17,0,0,1,4.59,10.62c.29,4.59,7.47,4.62,7.18,0Z"/></g></svg>